<svg xmlns="http://www.w3.org/2000/svg" width="40" height="30" viewBox="0 0 40 30" fill="none">
  <path d="M36.7884 3.16934C40.1956 6.5765 40.1956 12.1006 36.7884 15.5078L25.8209 26.4753C22.4138 29.8824 16.8897 29.8824 13.4825 26.4753C10.0753 23.0681 10.0753 17.544 13.4825 14.1368L24.45 3.16934C27.8572 -0.237821 33.3813 -0.237822 36.7884 3.16934Z" fill="#7390F9"/>
  <path d="M25.8613 26.4751C22.4541 29.8822 16.93 29.8822 13.5229 26.4751L2.55537 15.5076C-0.85179 12.1004 -0.851791 6.5763 2.55537 3.16914C5.96253 -0.238019 11.4866 -0.238022 14.8938 3.16914L25.8613 14.1366C29.2685 17.5438 29.2685 23.0679 25.8613 26.4751Z" fill="#FF774C"/>
  <path d="M26.3425 25.9603L25.8209 26.4819C24.1336 28.1692 21.9271 29.0209 19.7156 29.037C17.475 29.043 15.2324 28.1913 13.5229 26.4817L12.999 25.9578C10.0838 22.5299 10.245 17.381 13.4825 14.1435L19.672 7.95397L25.8613 14.1433C29.0997 17.3816 29.2601 22.5324 26.3425 25.9603Z" fill="#242F65"/>
</svg>