<svg width="20" height="21" viewBox="0 0 20 21" fill="none" xmlns="http://www.w3.org/2000/svg">
<rect width="20" height="20" transform="translate(0 0.830078)" fill="white" fill-opacity="0.01"/>
<path d="M13.75 7.94255V6.66345C13.75 4.59595 12.0675 2.91345 10 2.91345C7.9325 2.91345 6.25 4.59595 6.25 6.66345V7.94255C4.61833 8.08588 3.75 9.07012 3.75 10.8301V15.8301C3.75 17.7385 4.75833 18.7468 6.66667 18.7468H13.3333C15.2417 18.7468 16.25 17.7385 16.25 15.8301V10.8301C16.25 9.07012 15.3817 8.08588 13.75 7.94255ZM10 3.74679C11.6083 3.74679 12.9167 5.05512 12.9167 6.66345V7.91345H7.08333V6.66345C7.08333 5.05512 8.39167 3.74679 10 3.74679ZM15.4167 15.8301C15.4167 17.271 14.7742 17.9135 13.3333 17.9135H6.66667C5.22583 17.9135 4.58333 17.271 4.58333 15.8301V10.8301C4.58333 9.38929 5.22583 8.74679 6.66667 8.74679H13.3333C14.7742 8.74679 15.4167 9.38929 15.4167 10.8301V15.8301ZM10.8333 12.4968C10.8333 12.8035 10.6617 13.0594 10.4167 13.2044V14.9968C10.4167 15.2268 10.23 15.4135 10 15.4135C9.77 15.4135 9.58333 15.2268 9.58333 14.9968V13.1993C9.34 13.0535 9.16667 12.8001 9.16667 12.4968C9.16667 12.036 9.52926 11.6635 9.98759 11.6635H10.0041C10.4624 11.6635 10.8333 12.036 10.8333 12.4968Z" fill="#626576"/>
</svg>
