<svg width="20" height="21" viewBox="0 0 20 21" fill="none" xmlns="http://www.w3.org/2000/svg">
<rect width="20" height="20" transform="translate(0 0.830078)" fill="white" fill-opacity="0.01"/>
<path d="M14.9997 4.58008H4.99967C3.09134 4.58008 2.08301 5.58841 2.08301 7.49674V14.9967C2.08301 16.9051 3.09134 17.9134 4.99967 17.9134H14.9997C16.908 17.9134 17.9163 16.9051 17.9163 14.9967V7.49674C17.9163 5.58841 16.908 4.58008 14.9997 4.58008ZM17.083 14.9967C17.083 16.4376 16.4405 17.0801 14.9997 17.0801H4.99967C3.55884 17.0801 2.91634 16.4376 2.91634 14.9967V7.49674C2.91634 6.05591 3.55884 5.41341 4.99967 5.41341H14.9997C16.4405 5.41341 17.083 6.05591 17.083 7.49674V14.9967ZM14.9197 8.08507C15.0547 8.27091 15.0138 8.53175 14.828 8.66675L10.7347 11.6434C10.5147 11.8034 10.2572 11.8834 9.99967 11.8834C9.74134 11.8834 9.48461 11.8034 9.26461 11.6434L5.17139 8.66675C4.98472 8.53175 4.94463 8.27091 5.07963 8.08507C5.21463 7.89841 5.4763 7.85841 5.6613 7.99341L9.75472 10.9701C9.90139 11.0759 10.098 11.0767 10.2446 10.9701L14.3381 7.99341C14.5239 7.85841 14.7847 7.89841 14.9197 8.08507Z" fill="#626576"/>
</svg>
